PathFileType	4	(X/Y/Z)	C:/Users/opensim2020/Desktop/walking_exp_matlab/subject03_walking15_straight_02.trc	
DataRate	CameraRate	NumFrames	NumMarkers	Units	OrigDataRate	OrigDataStartFrame	OrigNumFrames	
100.00	100.00	4	47	mm	100.00	1140	149	
Frame#	Time	LFHD			RFHD			LBHD			RBHD			C7			T10			CLAV			STRN			RBAK			LSHO			LUPA			LELB			LFRM			LWRA			LWRB			LFIN			RSHO			RUPA			RELB			RFRM			RWRA			RWRB			RFIN			LASI			RASI			LPSI			RPSI			LTHI			LKNE			LTIB			LANK			LHEE			LTOE			RTHI			RKNE			RTIB			RANK			RHEE			RTOE			*39			*40			*41			*42			*43			*44			*45			*46			
		X1	Y1	Z1	X2	Y2	Z2	X3	Y3	Z3	X4	Y4	Z4	X5	Y5	Z5	X6	Y6	Z6	X7	Y7	Z7	X8	Y8	Z8	X9	Y9	Z9	X10	Y10	Z10	X11	Y11	Z11	X12	Y12	Z12	X13	Y13	Z13	X14	Y14	Z14	X15	Y15	Z15	X16	Y16	Z16	X17	Y17	Z17	X18	Y18	Z18	X19	Y19	Z19	X20	Y20	Z20	X21	Y21	Z21	X22	Y22	Z22	X23	Y23	Z23	X24	Y24	Z24	X25	Y25	Z25	X26	Y26	Z26	X27	Y27	Z27	X28	Y28	Z28	X29	Y29	Z29	X30	Y30	Z30	X31	Y31	Z31	X32	Y32	Z32	X33	Y33	Z33	X34	Y34	Z34	X35	Y35	Z35	X36	Y36	Z36	X37	Y37	Z37	X38	Y38	Z38	X39	Y39	Z39	X40	Y40	Z40	X41	Y41	Z41	X42	Y42	Z42	X43	Y43	Z43	X44	Y44	Z44	X45	Y45	Z45	X46	Y46	Z46	X47	Y47	Z47	

56	0.550	-908.32458	252.06558	1608.91980	-1040.09912	252.66582	1626.43005	-916.16711	381.69019	1571.48511	-1045.79688	377.33557	1587.86401	-979.01343	414.69278	1415.71509	-982.50403	452.12622	1103.04443	-991.43445	292.82547	1340.73193	-990.39716	248.95206	1175.95886	-1074.82996	474.93152	1242.14978	-831.63361	325.14789	1375.85364	-758.40918	322.98090	1179.21716	-745.97223	312.33994	1056.39551	-744.89978	291.98749	927.32172	-769.58752	290.66895	805.92902	-714.09607	295.87039	817.15137	-718.73145	285.36224	733.91833	-1146.46631	352.73306	1367.41064	-1223.21716	359.82303	1146.16516	-1236.10083	344.88919	1033.89246	-1237.77502	326.07159	898.22205	-1202.75134	293.72116	803.65558	-1245.96912	325.23343	797.47876	-1235.66858	298.03928	728.01038	-872.10730	278.47540	944.91858	-1108.34363	291.32620	936.98572	-914.40472	443.24481	964.22345	-1063.74890	449.00101	962.47797	-829.74597	319.68054	639.47235	-872.94122	312.14603	464.08597	-870.92969	381.27713	274.41144	-916.41785	423.93091	69.45482	-951.88281	468.55042	37.88833	-944.52887	275.14014	29.69683	-1145.57483	286.64041	638.05914	-1121.69067	220.86282	470.65738	-1120.33057	335.25684	317.36737	-1075.11914	466.73621	147.48781	-1022.18634	521.98975	141.31311	-1059.05579	370.60071	46.38148	-946.99969	334.46356	1679.54163																					 
57	0.560	-908.86096	238.62898	1609.62793	-1040.68982	239.08347	1626.54846	-916.59045	368.21207	1572.51282	-1046.29199	363.88739	1588.38135	-978.84796	401.43497	1416.26099	-981.56744	438.41913	1103.47632	-991.46167	279.64337	1341.29529	-990.13861	235.41095	1176.63989	-1073.65332	462.01965	1242.40186	-831.76099	311.50888	1376.83765	-757.87781	306.68646	1180.70496	-745.59448	292.74750	1058.19336	-745.63373	268.14932	929.78912	-771.16089	261.78275	809.12909	-715.86578	268.12036	819.43988	-720.87219	252.50510	737.69727	-1146.25281	340.27106	1367.51367	-1222.44727	349.56882	1146.30457	-1235.35071	335.95947	1033.76831	-1237.09985	319.57227	897.78754	-1202.57678	288.41638	802.85876	-1245.47534	320.61264	796.98450	-1235.14978	295.08496	726.82428	-871.32788	265.25504	944.85779	-1107.74768	277.68207	937.76361	-914.07477	429.59909	964.90961	-1063.28577	435.35660	963.22290	-830.10187	312.07559	639.45813	-873.01453	308.69513	463.83789	-871.12152	379.55292	275.12793	-916.42737	423.66180	70.20383	-951.97357	468.41235	39.02279	-944.34015	274.93161	29.77331	-1145.31287	268.75238	640.10492	-1119.91333	200.35056	473.96579	-1118.49658	307.01843	314.29254	-1072.79333	428.04648	136.72302	-1019.61371	482.49713	126.91982	-1057.10059	324.85474	43.12134	-948.43726	319.94138	1680.02075																					 
58	0.570	-909.48950	224.90154	1609.79785	-1041.34717	225.53172	1626.42554	-917.07227	354.75034	1573.17200	-1046.73071	350.40033	1588.60193	-978.70917	388.10266	1416.49243	-980.76581	424.84482	1103.67175	-991.52588	266.43378	1341.57886	-989.90210	221.88680	1177.03955	-1072.42786	449.07092	1242.33411	-831.86780	297.98245	1377.49548	-757.20172	290.60510	1182.00928	-745.12714	273.51633	1059.75720	-746.28363	244.29108	932.34387	-773.04608	233.30952	812.37512	-717.80182	240.11507	821.91040	-723.25183	219.85905	741.72913	-1146.07922	327.76813	1367.37280	-1221.75916	339.27856	1146.02075	-1234.59753	326.95001	1033.37512	-1236.48438	312.94717	897.08862	-1202.00562	283.96512	801.15027	-1245.00488	315.88147	796.31866	-1234.71130	291.87827	725.44360	-870.81097	252.14297	944.59692	-1107.27222	263.94336	938.06171	-913.87933	416.03455	965.31482	-1062.86438	421.71600	963.55872	-830.40521	304.63193	639.39301	-873.00317	305.19299	463.75751	-871.21796	378.03128	275.90268	-916.46783	423.40604	71.00770	-952.35034	468.03854	40.09253	-944.30170	274.80121	29.65012	-1144.89050	251.39050	641.93927	-1118.35449	180.61649	476.96106	-1116.86072	278.87900	311.04648	-1070.62085	388.37820	126.02929	-1016.99854	442.25095	112.82061	-1055.61011	278.72131	40.45609																								 
59	0.580	-910.07422	211.41641	1609.98621	-1042.04883	211.98062	1626.09351	-917.47864	341.17160	1573.43201	-1047.20813	336.93304	1588.53540	-978.74591	374.83191	1416.44580	-980.08911	411.20877	1103.59241	-991.59271	253.16109	1341.53308	-989.67511	208.38774	1177.17371	-1071.22510	436.07300	1241.99255	-831.95599	284.51068	1377.83521	-756.69611	274.43228	1182.94324	-744.56317	254.28445	1061.23389	-746.87396	220.46617	934.99890	-775.01990	205.03294	815.84924	-719.82056	212.08540	824.49792	-725.94922	187.52672	745.91760	-1145.94885	315.25388	1366.84412	-1221.06567	328.85651	1145.44629	-1233.87622	317.83627	1032.70886	-1235.89478	306.22754	896.18030	-1201.51416	278.87573	799.66461	-1244.51941	311.00443	795.44928	-1234.29480	288.50055	723.97156	-870.05908	238.74663	944.10706	-1106.73462	250.09193	938.05804	-913.82739	402.77063	965.55072	-1062.54529	408.08905	963.57629	-830.62604	297.04965	639.30176	-872.92798	301.74619	463.66721	-871.32379	376.58838	276.75024	-916.54224	423.22263	71.95693	-952.36841	467.80331	41.17007	-944.12787	274.67188	29.56379	-1144.44678	234.76056	643.42688	-1116.80896	161.61035	479.47946	-1115.51086	250.75830	307.57968	-1069.03064	347.81055	115.77463	-1015.56696	400.24597	98.60503	-1054.46533	232.37195	38.41209	-952.08545	291.08551	1679.76709																					 
